<mxfile host="app.diagrams.net" agent="Mozilla/5.0 (Windows NT 10.0; Win64; x64) AppleWebKit/537.36 (KHTML, like Gecko) Chrome/138.0.0.0 Safari/537.36" version="28.0.7" pages="4">
  <diagram name="Home Page" id="FaYdkDSfcLH8JQJQpr3Z">
    <mxGraphModel dx="601" dy="326" grid="1" gridSize="10" guides="1" tooltips="1" connect="1" arrows="1" fold="1" page="1" pageScale="1" pageWidth="520" pageHeight="3920" background="#FFFFFF" math="0" shadow="0">
      <root>
        <mxCell id="0" />
        <mxCell id="1" parent="0" />
        <mxCell id="FuQdSpT1WyQHZX7O-wV5-1" value="&lt;h1&gt;&lt;font style=&quot;font-size: 30px;&quot;&gt;&lt;b style=&quot;&quot;&gt;Title&lt;/b&gt;&lt;/font&gt;&lt;/h1&gt;" style="rounded=0;whiteSpace=wrap;html=1;fillColor=#e1d5e7;strokeColor=#9673a6;" vertex="1" parent="1">
          <mxGeometry width="520" height="90" as="geometry" />
        </mxCell>
        <mxCell id="FuQdSpT1WyQHZX7O-wV5-2" value="&lt;font style=&quot;font-size: 15px;&quot;&gt;logo&lt;/font&gt;" style="ellipse;whiteSpace=wrap;html=1;aspect=fixed;fillColor=#76608a;strokeColor=#432D57;fontColor=#ffffff;" vertex="1" parent="1">
          <mxGeometry x="30" y="12.5" width="65" height="65" as="geometry" />
        </mxCell>
        <mxCell id="FuQdSpT1WyQHZX7O-wV5-3" value="&lt;i&gt;Name of Author&lt;/i&gt;" style="text;html=1;align=left;verticalAlign=middle;whiteSpace=wrap;rounded=0;fontSize=15;" vertex="1" parent="1">
          <mxGeometry x="100" y="30" width="80" height="30" as="geometry" />
        </mxCell>
        <mxCell id="FuQdSpT1WyQHZX7O-wV5-4" value="&lt;h3&gt;&lt;div style=&quot;font-family: Consolas, &amp;quot;Courier New&amp;quot;, monospace; font-weight: normal; line-height: 19px; white-space: pre;&quot;&gt;&lt;div style=&quot;line-height: 19px;&quot;&gt;&lt;font style=&quot;color: rgb(255, 255, 255);&quot;&gt;â‰¡&lt;/font&gt;&lt;/div&gt;&lt;/div&gt;&lt;/h3&gt;" style="rounded=1;whiteSpace=wrap;html=1;fillColor=#76608a;fontColor=#ffffff;strokeColor=#432D57;fontSize=30;" vertex="1" parent="1">
          <mxGeometry x="430" y="22.5" width="50" height="45" as="geometry" />
        </mxCell>
        <mxCell id="FuQdSpT1WyQHZX7O-wV5-5" value="" style="rounded=1;whiteSpace=wrap;html=1;fillColor=#f5f5f5;strokeColor=#666666;fontColor=#333333;" vertex="1" parent="1">
          <mxGeometry x="40" y="120" width="440" height="240" as="geometry" />
        </mxCell>
        <mxCell id="FuQdSpT1WyQHZX7O-wV5-6" value="&lt;div style=&quot;line-height: 80%;&quot;&gt;&lt;h1 style=&quot;margin-top: 0px; line-height: 80%;&quot;&gt;&lt;span style=&quot;background-color: transparent; color: light-dark(rgb(0, 0, 0), rgb(255, 255, 255));&quot;&gt;Welcome Message&lt;/span&gt;&lt;/h1&gt;&lt;h1 style=&quot;margin-top: 0px; line-height: 80%;&quot;&gt;&lt;span style=&quot;background-color: transparent; color: light-dark(rgb(0, 0, 0), rgb(255, 255, 255)); font-size: 15px; font-weight: normal; line-height: 80%;&quot;&gt;Lorem ipsum dolor sit amet, consectetur adipisicing elit, sed do eiusmod tempor incididunt ut labore et dolore magna aliqua.&lt;/span&gt;&lt;/h1&gt;&lt;p&gt;&lt;br&gt;&lt;/p&gt;&lt;/div&gt;" style="text;html=1;whiteSpace=wrap;overflow=hidden;rounded=0;align=center;fontSize=15;verticalAlign=top;" vertex="1" parent="1">
          <mxGeometry x="65" y="155" width="390" height="170" as="geometry" />
        </mxCell>
        <mxCell id="FuQdSpT1WyQHZX7O-wV5-7" value="music player picture" style="rounded=1;whiteSpace=wrap;html=1;fillColor=#76608a;fontColor=#ffffff;strokeColor=#432D57;" vertex="1" parent="1">
          <mxGeometry x="40" y="400" width="200" height="280" as="geometry" />
        </mxCell>
        <mxCell id="FuQdSpT1WyQHZX7O-wV5-8" value="What is music?" style="text;strokeColor=none;fillColor=none;html=1;fontSize=20;fontStyle=1;verticalAlign=middle;align=left;" vertex="1" parent="1">
          <mxGeometry x="250" y="400" width="220" height="40" as="geometry" />
        </mxCell>
        <mxCell id="FuQdSpT1WyQHZX7O-wV5-9" value="" style="endArrow=none;html=1;rounded=0;exitX=0;exitY=1;exitDx=0;exitDy=0;fontSize=12;strokeWidth=2;" edge="1" parent="1">
          <mxGeometry width="50" height="50" relative="1" as="geometry">
            <mxPoint x="250" y="440" as="sourcePoint" />
            <mxPoint x="480" y="440" as="targetPoint" />
            <Array as="points">
              <mxPoint x="350" y="440" />
            </Array>
          </mxGeometry>
        </mxCell>
        <mxCell id="FuQdSpT1WyQHZX7O-wV5-10" value="&lt;span&gt;Description about music and where it came from, why its so popular, etc...&lt;/span&gt;&lt;div&gt;&lt;span&gt;&lt;br&gt;&lt;/span&gt;&lt;/div&gt;&lt;div&gt;&lt;span&gt;.&lt;/span&gt;&lt;/div&gt;&lt;div&gt;&lt;span&gt;.&lt;/span&gt;&lt;/div&gt;&lt;div&gt;&lt;span&gt;.&lt;/span&gt;&lt;/div&gt;" style="text;html=1;align=left;verticalAlign=middle;whiteSpace=wrap;rounded=0;spacing=0;fontSize=15;" vertex="1" parent="1">
          <mxGeometry x="250" y="450" width="230" height="140" as="geometry" />
        </mxCell>
        <mxCell id="FuQdSpT1WyQHZX7O-wV5-11" value="&lt;h1&gt;Top 6 Popular Music&amp;nbsp;&lt;/h1&gt;" style="text;html=1;align=center;verticalAlign=middle;whiteSpace=wrap;rounded=0;fontSize=10;" vertex="1" parent="1">
          <mxGeometry x="95" y="720" width="330" height="30" as="geometry" />
        </mxCell>
        <mxCell id="FuQdSpT1WyQHZX7O-wV5-12" value="" style="endArrow=none;html=1;rounded=0;strokeWidth=2;" edge="1" parent="1">
          <mxGeometry width="50" height="50" relative="1" as="geometry">
            <mxPoint x="80" y="760" as="sourcePoint" />
            <mxPoint x="440" y="760" as="targetPoint" />
          </mxGeometry>
        </mxCell>
        <mxCell id="FuQdSpT1WyQHZX7O-wV5-14" value="these top 6 songs are currently the most HOT and POPULAR music according to BILLBOARD charts" style="rounded=1;whiteSpace=wrap;html=1;fillColor=#f5f5f5;fontColor=#333333;strokeColor=#666666;fontSize=10;" vertex="1" parent="1">
          <mxGeometry x="40" y="780" width="440" height="60" as="geometry" />
        </mxCell>
        <mxCell id="FuQdSpT1WyQHZX7O-wV5-15" value="picture of top 1&lt;div&gt;popular music&lt;/div&gt;" style="whiteSpace=wrap;html=1;aspect=fixed;fillColor=#e1d5e7;strokeColor=#9673a6;" vertex="1" parent="1">
          <mxGeometry x="80" y="880" width="160" height="160" as="geometry" />
        </mxCell>
        <mxCell id="FuQdSpT1WyQHZX7O-wV5-16" value="&lt;h1 style=&quot;margin-top: 0px;&quot;&gt;Title of song&lt;/h1&gt;&lt;p&gt;Description of song, artist and other info.&lt;/p&gt;&lt;p&gt;&lt;br&gt;&lt;/p&gt;" style="text;html=1;whiteSpace=wrap;overflow=hidden;rounded=0;align=left;" vertex="1" parent="1">
          <mxGeometry x="250" y="880" width="160" height="109" as="geometry" />
        </mxCell>
        <mxCell id="FuQdSpT1WyQHZX7O-wV5-17" value="picture of top 2&lt;div&gt;popular music&lt;/div&gt;" style="whiteSpace=wrap;html=1;aspect=fixed;fillColor=#e1d5e7;strokeColor=#9673a6;" vertex="1" parent="1">
          <mxGeometry x="80" y="1060" width="160" height="160" as="geometry" />
        </mxCell>
        <mxCell id="FuQdSpT1WyQHZX7O-wV5-18" value="&lt;h1 style=&quot;margin-top: 0px;&quot;&gt;Title of song&lt;/h1&gt;&lt;p&gt;Description of song, artist and other info.&lt;/p&gt;&lt;p&gt;&lt;br&gt;&lt;/p&gt;" style="text;html=1;whiteSpace=wrap;overflow=hidden;rounded=0;align=left;" vertex="1" parent="1">
          <mxGeometry x="250" y="1060" width="160" height="109" as="geometry" />
        </mxCell>
        <mxCell id="FuQdSpT1WyQHZX7O-wV5-19" value="picture of top 3&lt;div&gt;popular music&lt;/div&gt;" style="whiteSpace=wrap;html=1;aspect=fixed;fillColor=#e1d5e7;strokeColor=#9673a6;" vertex="1" parent="1">
          <mxGeometry x="80" y="1240" width="160" height="160" as="geometry" />
        </mxCell>
        <mxCell id="FuQdSpT1WyQHZX7O-wV5-20" value="picture of top 4&lt;div&gt;popular music&lt;/div&gt;" style="whiteSpace=wrap;html=1;aspect=fixed;fillColor=#e1d5e7;strokeColor=#9673a6;" vertex="1" parent="1">
          <mxGeometry x="80" y="1420" width="160" height="160" as="geometry" />
        </mxCell>
        <mxCell id="FuQdSpT1WyQHZX7O-wV5-21" value="picture of top 5&lt;div&gt;popular music&lt;/div&gt;" style="whiteSpace=wrap;html=1;aspect=fixed;fillColor=#e1d5e7;strokeColor=#9673a6;" vertex="1" parent="1">
          <mxGeometry x="80" y="1600" width="160" height="160" as="geometry" />
        </mxCell>
        <mxCell id="FuQdSpT1WyQHZX7O-wV5-22" value="picture of top 6&lt;div&gt;popular music&lt;/div&gt;" style="whiteSpace=wrap;html=1;aspect=fixed;fillColor=#e1d5e7;strokeColor=#9673a6;" vertex="1" parent="1">
          <mxGeometry x="80" y="1780" width="160" height="160" as="geometry" />
        </mxCell>
        <mxCell id="FuQdSpT1WyQHZX7O-wV5-23" value="&lt;h1 style=&quot;margin-top: 0px;&quot;&gt;Title of song&lt;/h1&gt;&lt;p&gt;Description of song, artist and other info.&lt;/p&gt;&lt;p&gt;&lt;br&gt;&lt;/p&gt;" style="text;html=1;whiteSpace=wrap;overflow=hidden;rounded=0;align=left;" vertex="1" parent="1">
          <mxGeometry x="250" y="1240" width="160" height="109" as="geometry" />
        </mxCell>
        <mxCell id="FuQdSpT1WyQHZX7O-wV5-24" value="&lt;h1 style=&quot;margin-top: 0px;&quot;&gt;Title of song&lt;/h1&gt;&lt;p&gt;Description of song, artist and other info.&lt;/p&gt;&lt;p&gt;&lt;br&gt;&lt;/p&gt;" style="text;html=1;whiteSpace=wrap;overflow=hidden;rounded=0;align=left;" vertex="1" parent="1">
          <mxGeometry x="250" y="1420" width="160" height="109" as="geometry" />
        </mxCell>
        <mxCell id="FuQdSpT1WyQHZX7O-wV5-25" value="&lt;h1 style=&quot;margin-top: 0px;&quot;&gt;Title of song&lt;/h1&gt;&lt;p&gt;Description of song, artist and other info.&lt;/p&gt;&lt;p&gt;&lt;br&gt;&lt;/p&gt;" style="text;html=1;whiteSpace=wrap;overflow=hidden;rounded=0;align=left;" vertex="1" parent="1">
          <mxGeometry x="250" y="1600" width="160" height="109" as="geometry" />
        </mxCell>
        <mxCell id="FuQdSpT1WyQHZX7O-wV5-26" value="&lt;h1 style=&quot;margin-top: 0px;&quot;&gt;Title of song&lt;/h1&gt;&lt;p&gt;Description of song, artist and other info.&lt;/p&gt;&lt;p&gt;&lt;br&gt;&lt;/p&gt;" style="text;html=1;whiteSpace=wrap;overflow=hidden;rounded=0;align=left;" vertex="1" parent="1">
          <mxGeometry x="250" y="1780" width="160" height="109" as="geometry" />
        </mxCell>
        <mxCell id="FuQdSpT1WyQHZX7O-wV5-27" value="music player picture" style="rounded=1;whiteSpace=wrap;html=1;fillColor=#76608a;fontColor=#ffffff;strokeColor=#432D57;" vertex="1" parent="1">
          <mxGeometry x="280" y="2000" width="200" height="280" as="geometry" />
        </mxCell>
        <mxCell id="FuQdSpT1WyQHZX7O-wV5-28" value="Music Genres" style="text;strokeColor=none;fillColor=none;html=1;fontSize=20;fontStyle=1;verticalAlign=middle;align=right;" vertex="1" parent="1">
          <mxGeometry x="50" y="2000" width="220" height="40" as="geometry" />
        </mxCell>
        <mxCell id="FuQdSpT1WyQHZX7O-wV5-29" value="" style="endArrow=none;html=1;rounded=0;exitX=0;exitY=1;exitDx=0;exitDy=0;fontSize=12;strokeWidth=2;" edge="1" parent="1">
          <mxGeometry width="50" height="50" relative="1" as="geometry">
            <mxPoint x="40" y="2040" as="sourcePoint" />
            <mxPoint x="270" y="2040" as="targetPoint" />
            <Array as="points">
              <mxPoint x="140" y="2040" />
            </Array>
          </mxGeometry>
        </mxCell>
        <mxCell id="FuQdSpT1WyQHZX7O-wV5-30" value="&lt;span&gt;Description about music and where it came from, why its so popular, etc...&lt;/span&gt;&lt;div&gt;&lt;span&gt;&lt;br&gt;&lt;/span&gt;&lt;/div&gt;&lt;div&gt;&lt;span&gt;.&lt;/span&gt;&lt;/div&gt;&lt;div&gt;&lt;span&gt;.&lt;/span&gt;&lt;/div&gt;&lt;div&gt;&lt;span&gt;.&lt;/span&gt;&lt;/div&gt;&lt;div&gt;&lt;span style=&quot;background-color: transparent; color: light-dark(rgb(0, 0, 0), rgb(255, 255, 255));&quot;&gt;.&lt;/span&gt;&lt;/div&gt;" style="text;html=1;align=right;verticalAlign=middle;whiteSpace=wrap;rounded=0;spacing=0;fontSize=15;" vertex="1" parent="1">
          <mxGeometry x="40" y="2050" width="230" height="150" as="geometry" />
        </mxCell>
        <mxCell id="FuQdSpT1WyQHZX7O-wV5-31" value="&lt;h1&gt;Types of Music&amp;nbsp;&lt;/h1&gt;" style="text;html=1;align=center;verticalAlign=middle;whiteSpace=wrap;rounded=0;fontSize=10;" vertex="1" parent="1">
          <mxGeometry x="95" y="2320" width="330" height="30" as="geometry" />
        </mxCell>
        <mxCell id="FuQdSpT1WyQHZX7O-wV5-32" value="" style="endArrow=none;html=1;rounded=0;strokeWidth=2;" edge="1" parent="1">
          <mxGeometry width="50" height="50" relative="1" as="geometry">
            <mxPoint x="80" y="2360" as="sourcePoint" />
            <mxPoint x="440" y="2360" as="targetPoint" />
          </mxGeometry>
        </mxCell>
        <mxCell id="FuQdSpT1WyQHZX7O-wV5-33" value="icon" style="rounded=1;whiteSpace=wrap;html=1;fillColor=#f5f5f5;fontColor=#333333;strokeColor=#666666;" vertex="1" parent="1">
          <mxGeometry x="120" y="2400" width="120" height="120" as="geometry" />
        </mxCell>
        <mxCell id="FuQdSpT1WyQHZX7O-wV5-34" value="&lt;h1 style=&quot;margin-top: 0px;&quot;&gt;Pop Music&lt;/h1&gt;&lt;p&gt;Lorem ipsum dolor sit amet, consectetur adipisicing elit, sed do eiusmod tempor incididunt ut labore et dolore magna aliqua.&lt;/p&gt;" style="text;html=1;whiteSpace=wrap;overflow=hidden;rounded=0;fontSize=10;" vertex="1" parent="1">
          <mxGeometry x="250" y="2400" width="170" height="120" as="geometry" />
        </mxCell>
        <mxCell id="FuQdSpT1WyQHZX7O-wV5-35" value="icon" style="rounded=1;whiteSpace=wrap;html=1;fillColor=#f5f5f5;fontColor=#333333;strokeColor=#666666;" vertex="1" parent="1">
          <mxGeometry x="120" y="2540" width="120" height="120" as="geometry" />
        </mxCell>
        <mxCell id="FuQdSpT1WyQHZX7O-wV5-36" value="icon" style="rounded=1;whiteSpace=wrap;html=1;fillColor=#f5f5f5;fontColor=#333333;strokeColor=#666666;" vertex="1" parent="1">
          <mxGeometry x="120" y="2680" width="120" height="120" as="geometry" />
        </mxCell>
        <mxCell id="FuQdSpT1WyQHZX7O-wV5-37" value="icon" style="rounded=1;whiteSpace=wrap;html=1;fillColor=#f5f5f5;fontColor=#333333;strokeColor=#666666;" vertex="1" parent="1">
          <mxGeometry x="120" y="2820" width="120" height="120" as="geometry" />
        </mxCell>
        <mxCell id="FuQdSpT1WyQHZX7O-wV5-38" value="icon" style="rounded=1;whiteSpace=wrap;html=1;fillColor=#f5f5f5;fontColor=#333333;strokeColor=#666666;" vertex="1" parent="1">
          <mxGeometry x="120" y="2960" width="120" height="120" as="geometry" />
        </mxCell>
        <mxCell id="FuQdSpT1WyQHZX7O-wV5-39" value="icon" style="rounded=1;whiteSpace=wrap;html=1;fillColor=#f5f5f5;fontColor=#333333;strokeColor=#666666;" vertex="1" parent="1">
          <mxGeometry x="120" y="3100" width="120" height="120" as="geometry" />
        </mxCell>
        <mxCell id="FuQdSpT1WyQHZX7O-wV5-40" value="icon" style="rounded=1;whiteSpace=wrap;html=1;fillColor=#f5f5f5;fontColor=#333333;strokeColor=#666666;" vertex="1" parent="1">
          <mxGeometry x="120" y="3240" width="120" height="120" as="geometry" />
        </mxCell>
        <mxCell id="FuQdSpT1WyQHZX7O-wV5-41" value="icon" style="rounded=1;whiteSpace=wrap;html=1;fillColor=#f5f5f5;fontColor=#333333;strokeColor=#666666;" vertex="1" parent="1">
          <mxGeometry x="120" y="3380" width="120" height="120" as="geometry" />
        </mxCell>
        <mxCell id="FuQdSpT1WyQHZX7O-wV5-42" value="icon" style="rounded=1;whiteSpace=wrap;html=1;fillColor=#f5f5f5;fontColor=#333333;strokeColor=#666666;" vertex="1" parent="1">
          <mxGeometry x="120" y="3520" width="120" height="120" as="geometry" />
        </mxCell>
        <mxCell id="FuQdSpT1WyQHZX7O-wV5-43" value="icon" style="rounded=1;whiteSpace=wrap;html=1;fillColor=#f5f5f5;fontColor=#333333;strokeColor=#666666;" vertex="1" parent="1">
          <mxGeometry x="120" y="3660" width="120" height="120" as="geometry" />
        </mxCell>
        <mxCell id="FuQdSpT1WyQHZX7O-wV5-44" value="&lt;h1 style=&quot;margin-top: 0px;&quot;&gt;Rock Music&lt;/h1&gt;&lt;p&gt;Lorem ipsum dolor sit amet, consectetur adipisicing elit, sed do eiusmod tempor incididunt ut labore et dolore magna aliqua.&lt;/p&gt;" style="text;html=1;whiteSpace=wrap;overflow=hidden;rounded=0;fontSize=10;" vertex="1" parent="1">
          <mxGeometry x="250" y="2540" width="170" height="120" as="geometry" />
        </mxCell>
        <mxCell id="FuQdSpT1WyQHZX7O-wV5-45" value="&lt;h1 style=&quot;margin-top: 0px;&quot;&gt;Hip-Hop/Rap&lt;/h1&gt;&lt;p&gt;Lorem ipsum dolor sit amet, consectetur adipisicing elit, sed do eiusmod tempor incididunt ut labore et dolore magna aliqua.&lt;/p&gt;" style="text;html=1;whiteSpace=wrap;overflow=hidden;rounded=0;fontSize=10;" vertex="1" parent="1">
          <mxGeometry x="250" y="2680" width="170" height="120" as="geometry" />
        </mxCell>
        <mxCell id="FuQdSpT1WyQHZX7O-wV5-47" value="&lt;h1 style=&quot;margin-top: 0px;&quot;&gt;Country&lt;/h1&gt;&lt;p&gt;Lorem ipsum dolor sit amet, consectetur adipisicing elit, sed do eiusmod tempor incididunt ut labore et dolore magna aliqua.&lt;/p&gt;" style="text;html=1;whiteSpace=wrap;overflow=hidden;rounded=0;fontSize=10;" vertex="1" parent="1">
          <mxGeometry x="250" y="2820" width="170" height="120" as="geometry" />
        </mxCell>
        <mxCell id="FuQdSpT1WyQHZX7O-wV5-48" value="&lt;h1 style=&quot;margin-top: 0px;&quot;&gt;R&amp;amp;B/Soul&lt;/h1&gt;&lt;p&gt;Lorem ipsum dolor sit amet, consectetur adipisicing elit, sed do eiusmod tempor incididunt ut labore et dolore magna aliqua.&lt;/p&gt;" style="text;html=1;whiteSpace=wrap;overflow=hidden;rounded=0;fontSize=10;" vertex="1" parent="1">
          <mxGeometry x="250" y="2960" width="170" height="120" as="geometry" />
        </mxCell>
        <mxCell id="FuQdSpT1WyQHZX7O-wV5-49" value="&lt;h1 style=&quot;margin-top: 0px;&quot;&gt;EDM&lt;/h1&gt;&lt;p&gt;Lorem ipsum dolor sit amet, consectetur adipisicing elit, sed do eiusmod tempor incididunt ut labore et dolore magna aliqua.&lt;/p&gt;" style="text;html=1;whiteSpace=wrap;overflow=hidden;rounded=0;fontSize=10;" vertex="1" parent="1">
          <mxGeometry x="250" y="3100" width="170" height="120" as="geometry" />
        </mxCell>
        <mxCell id="FuQdSpT1WyQHZX7O-wV5-50" value="&lt;h1 style=&quot;margin-top: 0px;&quot;&gt;Classical Music&lt;/h1&gt;&lt;p&gt;Lorem ipsum dolor sit amet, consectetur adipisicing elit, sed do eiusmod tempor incididunt ut labore et dolore magna aliqua.&lt;/p&gt;" style="text;html=1;whiteSpace=wrap;overflow=hidden;rounded=0;fontSize=10;" vertex="1" parent="1">
          <mxGeometry x="250" y="3240" width="170" height="120" as="geometry" />
        </mxCell>
        <mxCell id="FuQdSpT1WyQHZX7O-wV5-51" value="&lt;h1 style=&quot;margin-top: 0px;&quot;&gt;Jazz&lt;/h1&gt;&lt;p&gt;Lorem ipsum dolor sit amet, consectetur adipisicing elit, sed do eiusmod tempor incididunt ut labore et dolore magna aliqua.&lt;/p&gt;" style="text;html=1;whiteSpace=wrap;overflow=hidden;rounded=0;fontSize=10;" vertex="1" parent="1">
          <mxGeometry x="250" y="3380" width="170" height="120" as="geometry" />
        </mxCell>
        <mxCell id="FuQdSpT1WyQHZX7O-wV5-52" value="&lt;h1 style=&quot;margin-top: 0px;&quot;&gt;K-Pop&lt;/h1&gt;&lt;p&gt;Lorem ipsum dolor sit amet, consectetur adipisicing elit, sed do eiusmod tempor incididunt ut labore et dolore magna aliqua.&lt;/p&gt;" style="text;html=1;whiteSpace=wrap;overflow=hidden;rounded=0;fontSize=10;" vertex="1" parent="1">
          <mxGeometry x="250" y="3520" width="170" height="120" as="geometry" />
        </mxCell>
        <mxCell id="FuQdSpT1WyQHZX7O-wV5-53" value="&lt;h1 style=&quot;margin-top: 0px;&quot;&gt;Reggae&lt;/h1&gt;&lt;p&gt;Lorem ipsum dolor sit amet, consectetur adipisicing elit, sed do eiusmod tempor incididunt ut labore et dolore magna aliqua.&lt;/p&gt;" style="text;html=1;whiteSpace=wrap;overflow=hidden;rounded=0;fontSize=10;" vertex="1" parent="1">
          <mxGeometry x="250" y="3660" width="170" height="120" as="geometry" />
        </mxCell>
        <mxCell id="FuQdSpT1WyQHZX7O-wV5-54" value="&lt;font&gt;footer&lt;/font&gt;" style="rounded=0;whiteSpace=wrap;html=1;fillColor=#e1d5e7;strokeColor=#9673a6;fontStyle=2;fontSize=20;" vertex="1" parent="1">
          <mxGeometry y="3840" width="520" height="80" as="geometry" />
        </mxCell>
      </root>
    </mxGraphModel>
  </diagram>
  <diagram name="Search Page" id="5m3Px1sN_TtFfCYdOtLG">
    <mxGraphModel dx="872" dy="473" grid="1" gridSize="10" guides="1" tooltips="1" connect="1" arrows="1" fold="1" page="1" pageScale="1" pageWidth="520" pageHeight="760" background="#FFFFFF" math="0" shadow="0">
      <root>
        <mxCell id="c4IfmZKi2xU7aLzhWQ9H-0" />
        <mxCell id="c4IfmZKi2xU7aLzhWQ9H-1" parent="c4IfmZKi2xU7aLzhWQ9H-0" />
        <mxCell id="c4IfmZKi2xU7aLzhWQ9H-2" value="&lt;h1&gt;&lt;font style=&quot;font-size: 30px;&quot;&gt;&lt;b style=&quot;&quot;&gt;Title&lt;/b&gt;&lt;/font&gt;&lt;/h1&gt;" style="rounded=0;whiteSpace=wrap;html=1;fillColor=#e1d5e7;strokeColor=#9673a6;" vertex="1" parent="c4IfmZKi2xU7aLzhWQ9H-1">
          <mxGeometry width="520" height="90" as="geometry" />
        </mxCell>
        <mxCell id="c4IfmZKi2xU7aLzhWQ9H-3" value="&lt;font style=&quot;font-size: 15px;&quot;&gt;logo&lt;/font&gt;" style="ellipse;whiteSpace=wrap;html=1;aspect=fixed;fillColor=#76608a;strokeColor=#432D57;fontColor=#ffffff;" vertex="1" parent="c4IfmZKi2xU7aLzhWQ9H-1">
          <mxGeometry x="30" y="12.5" width="65" height="65" as="geometry" />
        </mxCell>
        <mxCell id="c4IfmZKi2xU7aLzhWQ9H-4" value="&lt;i&gt;Name of Author&lt;/i&gt;" style="text;html=1;align=left;verticalAlign=middle;whiteSpace=wrap;rounded=0;fontSize=15;" vertex="1" parent="c4IfmZKi2xU7aLzhWQ9H-1">
          <mxGeometry x="100" y="30" width="80" height="30" as="geometry" />
        </mxCell>
        <mxCell id="c4IfmZKi2xU7aLzhWQ9H-5" value="&lt;h3&gt;&lt;div style=&quot;font-family: Consolas, &amp;quot;Courier New&amp;quot;, monospace; font-weight: normal; line-height: 19px; white-space: pre;&quot;&gt;&lt;div style=&quot;line-height: 19px;&quot;&gt;&lt;font style=&quot;color: rgb(255, 255, 255);&quot;&gt;â‰¡&lt;/font&gt;&lt;/div&gt;&lt;/div&gt;&lt;/h3&gt;" style="rounded=1;whiteSpace=wrap;html=1;fillColor=#76608a;fontColor=#ffffff;strokeColor=#432D57;fontSize=30;" vertex="1" parent="c4IfmZKi2xU7aLzhWQ9H-1">
          <mxGeometry x="430" y="22.5" width="50" height="45" as="geometry" />
        </mxCell>
        <mxCell id="c4IfmZKi2xU7aLzhWQ9H-9" value="Song Info" style="text;strokeColor=none;fillColor=none;html=1;fontSize=20;fontStyle=1;verticalAlign=middle;align=center;" vertex="1" parent="c4IfmZKi2xU7aLzhWQ9H-1">
          <mxGeometry x="160" y="120" width="200" height="40" as="geometry" />
        </mxCell>
        <mxCell id="c4IfmZKi2xU7aLzhWQ9H-10" value="" style="endArrow=none;html=1;rounded=0;fontSize=12;strokeWidth=2;" edge="1" parent="c4IfmZKi2xU7aLzhWQ9H-1">
          <mxGeometry width="50" height="50" relative="1" as="geometry">
            <mxPoint x="80" y="160" as="sourcePoint" />
            <mxPoint x="440" y="160" as="targetPoint" />
            <Array as="points">
              <mxPoint x="220" y="160" />
            </Array>
          </mxGeometry>
        </mxCell>
        <mxCell id="c4IfmZKi2xU7aLzhWQ9H-53" value="&lt;font&gt;footer&lt;/font&gt;" style="rounded=0;whiteSpace=wrap;html=1;fillColor=#e1d5e7;strokeColor=#9673a6;fontStyle=2;fontSize=20;" vertex="1" parent="c4IfmZKi2xU7aLzhWQ9H-1">
          <mxGeometry y="680" width="520" height="80" as="geometry" />
        </mxCell>
        <mxCell id="-t1eIi3Jvt9c2Yq948rR-4" value="&lt;span style=&quot;text-align: left;&quot;&gt;Lorem ipsum dolor sit amet, consectetur adipisicing elit, sed do eiusmod tempor incididunt ut labore et dolore magna aliqua.&lt;/span&gt;" style="text;html=1;align=center;verticalAlign=middle;whiteSpace=wrap;rounded=0;fontSize=13;" vertex="1" parent="c4IfmZKi2xU7aLzhWQ9H-1">
          <mxGeometry x="100" y="170" width="320" height="50" as="geometry" />
        </mxCell>
        <mxCell id="-t1eIi3Jvt9c2Yq948rR-5" value="&lt;b&gt;Search&lt;/b&gt; &lt;i&gt;(user can type here to search any song from Spotify)&lt;/i&gt;" style="strokeWidth=2;shadow=0;dashed=0;align=center;html=1;shape=mxgraph.mockup.forms.searchBox;strokeColor=light-dark(#7a5f89, #959595);mainText=;strokeColor2=#008cff;fontSize=10;align=left;spacingLeft=3;whiteSpace=wrap;labelBackgroundColor=none;labelBorderColor=none;spacing=10;fillColor=#f5f5f5;fontColor=#333333;fontStyle=0;" vertex="1" parent="c4IfmZKi2xU7aLzhWQ9H-1">
          <mxGeometry x="40" y="240" width="440" height="40" as="geometry" />
        </mxCell>
        <mxCell id="-t1eIi3Jvt9c2Yq948rR-6" value="" style="rounded=1;whiteSpace=wrap;html=1;fillColor=#76608a;strokeColor=#432D57;fontColor=#ffffff;" vertex="1" parent="c4IfmZKi2xU7aLzhWQ9H-1">
          <mxGeometry x="80" y="320" width="360" height="280" as="geometry" />
        </mxCell>
        <mxCell id="-t1eIi3Jvt9c2Yq948rR-7" value="&lt;h1 style=&quot;margin-top: 0px;&quot;&gt;&amp;lt;Song Name&amp;gt;&lt;/h1&gt;&lt;p&gt;Information about the song...&lt;/p&gt;&lt;p&gt;Title: ...&lt;/p&gt;&lt;p&gt;Artist: ...&lt;/p&gt;&lt;p&gt;Album: ...&lt;/p&gt;&lt;p&gt;&lt;br&gt;&lt;/p&gt;" style="text;html=1;whiteSpace=wrap;overflow=hidden;rounded=0;fontSize=15;fontColor=#FFFFFF;" vertex="1" parent="c4IfmZKi2xU7aLzhWQ9H-1">
          <mxGeometry x="135" y="350" width="250" height="210" as="geometry" />
        </mxCell>
        <mxCell id="-t1eIi3Jvt9c2Yq948rR-8" value="" style="html=1;verticalLabelPosition=bottom;align=center;labelBackgroundColor=#ffffff;verticalAlign=top;strokeWidth=2;strokeColor=#FFFFFF;shadow=0;dashed=0;shape=mxgraph.ios7.icons.note;pointerEvents=1;fillColor=#FFFFFF;" vertex="1" parent="c4IfmZKi2xU7aLzhWQ9H-1">
          <mxGeometry x="340" y="490" width="70" height="70" as="geometry" />
        </mxCell>
      </root>
    </mxGraphModel>
  </diagram>
  <diagram name="AboutMe Page" id="UsTJ1uHSR4NqCnayH5t5">
    <mxGraphModel dx="601" dy="326" grid="1" gridSize="10" guides="1" tooltips="1" connect="1" arrows="1" fold="1" page="1" pageScale="1" pageWidth="520" pageHeight="420" background="#FFFFFF" math="0" shadow="0">
      <root>
        <mxCell id="1z9FsNmPNlrzqUO4WPjW-0" />
        <mxCell id="1z9FsNmPNlrzqUO4WPjW-1" parent="1z9FsNmPNlrzqUO4WPjW-0" />
        <mxCell id="1z9FsNmPNlrzqUO4WPjW-2" value="&lt;h1&gt;&lt;font style=&quot;font-size: 30px;&quot;&gt;&lt;b style=&quot;&quot;&gt;Title&lt;/b&gt;&lt;/font&gt;&lt;/h1&gt;" style="rounded=0;whiteSpace=wrap;html=1;fillColor=#e1d5e7;strokeColor=#9673a6;" vertex="1" parent="1z9FsNmPNlrzqUO4WPjW-1">
          <mxGeometry width="520" height="90" as="geometry" />
        </mxCell>
        <mxCell id="1z9FsNmPNlrzqUO4WPjW-3" value="&lt;font style=&quot;font-size: 15px;&quot;&gt;logo&lt;/font&gt;" style="ellipse;whiteSpace=wrap;html=1;aspect=fixed;fillColor=#76608a;strokeColor=#432D57;fontColor=#ffffff;" vertex="1" parent="1z9FsNmPNlrzqUO4WPjW-1">
          <mxGeometry x="30" y="12.5" width="65" height="65" as="geometry" />
        </mxCell>
        <mxCell id="1z9FsNmPNlrzqUO4WPjW-4" value="&lt;i&gt;Name of Author&lt;/i&gt;" style="text;html=1;align=left;verticalAlign=middle;whiteSpace=wrap;rounded=0;fontSize=15;" vertex="1" parent="1z9FsNmPNlrzqUO4WPjW-1">
          <mxGeometry x="100" y="30" width="80" height="30" as="geometry" />
        </mxCell>
        <mxCell id="1z9FsNmPNlrzqUO4WPjW-5" value="&lt;h3&gt;&lt;div style=&quot;font-family: Consolas, &amp;quot;Courier New&amp;quot;, monospace; font-weight: normal; line-height: 19px; white-space: pre;&quot;&gt;&lt;div style=&quot;line-height: 19px;&quot;&gt;&lt;font style=&quot;color: rgb(255, 255, 255);&quot;&gt;â‰¡&lt;/font&gt;&lt;/div&gt;&lt;/div&gt;&lt;/h3&gt;" style="rounded=1;whiteSpace=wrap;html=1;fillColor=#76608a;fontColor=#ffffff;strokeColor=#432D57;fontSize=30;" vertex="1" parent="1z9FsNmPNlrzqUO4WPjW-1">
          <mxGeometry x="430" y="22.5" width="50" height="45" as="geometry" />
        </mxCell>
        <mxCell id="1z9FsNmPNlrzqUO4WPjW-8" value="&lt;font&gt;footer&lt;/font&gt;" style="rounded=0;whiteSpace=wrap;html=1;fillColor=#e1d5e7;strokeColor=#9673a6;fontStyle=2;fontSize=20;" vertex="1" parent="1z9FsNmPNlrzqUO4WPjW-1">
          <mxGeometry y="760" width="520" height="80" as="geometry" />
        </mxCell>
        <mxCell id="LZDlQ2L12RSmPraKZxtT-0" value="picture of author" style="rounded=1;whiteSpace=wrap;html=1;fillColor=#f5f5f5;fontColor=#333333;strokeColor=#666666;" vertex="1" parent="1z9FsNmPNlrzqUO4WPjW-1">
          <mxGeometry x="40" y="120" width="200" height="200" as="geometry" />
        </mxCell>
        <mxCell id="LZDlQ2L12RSmPraKZxtT-2" value="" style="endArrow=none;html=1;rounded=0;strokeWidth=2;" edge="1" parent="1z9FsNmPNlrzqUO4WPjW-1">
          <mxGeometry width="50" height="50" relative="1" as="geometry">
            <mxPoint x="250" y="160" as="sourcePoint" />
            <mxPoint x="480" y="160" as="targetPoint" />
          </mxGeometry>
        </mxCell>
        <mxCell id="LZDlQ2L12RSmPraKZxtT-3" value="&lt;span style=&quot;&quot;&gt;Description of author (who, where, purpose of this website, etc.)&lt;/span&gt;&lt;div&gt;&lt;span style=&quot;&quot;&gt;.&lt;/span&gt;&lt;/div&gt;&lt;div&gt;&lt;span style=&quot;&quot;&gt;.&lt;/span&gt;&lt;/div&gt;&lt;div&gt;&lt;span style=&quot;&quot;&gt;.&lt;/span&gt;&lt;/div&gt;&lt;div&gt;&lt;span style=&quot;&quot;&gt;.&lt;/span&gt;&lt;/div&gt;&lt;div&gt;&lt;span style=&quot;&quot;&gt;.&lt;/span&gt;&lt;/div&gt;" style="text;html=1;align=left;verticalAlign=middle;whiteSpace=wrap;rounded=0;fontSize=10;" vertex="1" parent="1z9FsNmPNlrzqUO4WPjW-1">
          <mxGeometry x="250" y="170" width="220" height="110" as="geometry" />
        </mxCell>
        <mxCell id="pZ1k_h3a0tv7yEpGoXJh-0" value="Who am I?" style="text;strokeColor=none;fillColor=none;html=1;fontSize=20;fontStyle=1;verticalAlign=middle;align=left;" vertex="1" parent="1z9FsNmPNlrzqUO4WPjW-1">
          <mxGeometry x="250" y="120" width="220" height="40" as="geometry" />
        </mxCell>
        <mxCell id="pZ1k_h3a0tv7yEpGoXJh-1" value="my socials" style="rounded=1;whiteSpace=wrap;html=1;fontSize=15;fontStyle=2;fillColor=#e1d5e7;strokeColor=#9673a6;" vertex="1" parent="1z9FsNmPNlrzqUO4WPjW-1">
          <mxGeometry x="120" y="360" width="280" height="40" as="geometry" />
        </mxCell>
        <mxCell id="pZ1k_h3a0tv7yEpGoXJh-2" value="icon" style="ellipse;whiteSpace=wrap;html=1;aspect=fixed;fillColor=#76608a;fontColor=#ffffff;strokeColor=#432D57;" vertex="1" parent="1z9FsNmPNlrzqUO4WPjW-1">
          <mxGeometry x="120" y="440" width="80" height="80" as="geometry" />
        </mxCell>
        <mxCell id="pZ1k_h3a0tv7yEpGoXJh-3" value="&lt;h2&gt;Facebok&lt;/h2&gt;" style="text;html=1;align=left;verticalAlign=middle;whiteSpace=wrap;rounded=0;fontSize=15;" vertex="1" parent="1z9FsNmPNlrzqUO4WPjW-1">
          <mxGeometry x="210" y="465" width="150" height="30" as="geometry" />
        </mxCell>
        <mxCell id="pZ1k_h3a0tv7yEpGoXJh-4" value="icon" style="ellipse;whiteSpace=wrap;html=1;aspect=fixed;fillColor=#76608a;fontColor=#ffffff;strokeColor=#432D57;" vertex="1" parent="1z9FsNmPNlrzqUO4WPjW-1">
          <mxGeometry x="120" y="530" width="80" height="80" as="geometry" />
        </mxCell>
        <mxCell id="pZ1k_h3a0tv7yEpGoXJh-5" value="&lt;h2&gt;LinkedIn&lt;/h2&gt;" style="text;html=1;align=left;verticalAlign=middle;whiteSpace=wrap;rounded=0;fontSize=15;" vertex="1" parent="1z9FsNmPNlrzqUO4WPjW-1">
          <mxGeometry x="210" y="555" width="150" height="30" as="geometry" />
        </mxCell>
        <mxCell id="pZ1k_h3a0tv7yEpGoXJh-6" value="icon" style="ellipse;whiteSpace=wrap;html=1;aspect=fixed;fillColor=#76608a;fontColor=#ffffff;strokeColor=#432D57;" vertex="1" parent="1z9FsNmPNlrzqUO4WPjW-1">
          <mxGeometry x="120" y="620" width="80" height="80" as="geometry" />
        </mxCell>
        <mxCell id="pZ1k_h3a0tv7yEpGoXJh-7" value="&lt;h2&gt;Instagram&lt;/h2&gt;" style="text;html=1;align=left;verticalAlign=middle;whiteSpace=wrap;rounded=0;fontSize=15;" vertex="1" parent="1z9FsNmPNlrzqUO4WPjW-1">
          <mxGeometry x="210" y="650" width="150" height="30" as="geometry" />
        </mxCell>
      </root>
    </mxGraphModel>
  </diagram>
  <diagram name="Contact Page" id="IsHbhpHGe3MoLJ_N9Ixh">
    <mxGraphModel dx="601" dy="326" grid="1" gridSize="10" guides="1" tooltips="1" connect="1" arrows="1" fold="1" page="1" pageScale="1" pageWidth="520" pageHeight="380" background="#FFFFFF" math="0" shadow="0">
      <root>
        <mxCell id="nwqiyzC2I8K5AtPygf9F-0" />
        <mxCell id="nwqiyzC2I8K5AtPygf9F-1" parent="nwqiyzC2I8K5AtPygf9F-0" />
        <mxCell id="nwqiyzC2I8K5AtPygf9F-2" value="&lt;h1&gt;&lt;font style=&quot;font-size: 30px;&quot;&gt;&lt;b style=&quot;&quot;&gt;Title&lt;/b&gt;&lt;/font&gt;&lt;/h1&gt;" style="rounded=0;whiteSpace=wrap;html=1;fillColor=#e1d5e7;strokeColor=#9673a6;" vertex="1" parent="nwqiyzC2I8K5AtPygf9F-1">
          <mxGeometry width="520" height="90" as="geometry" />
        </mxCell>
        <mxCell id="nwqiyzC2I8K5AtPygf9F-3" value="&lt;font style=&quot;font-size: 15px;&quot;&gt;logo&lt;/font&gt;" style="ellipse;whiteSpace=wrap;html=1;aspect=fixed;fillColor=#76608a;strokeColor=#432D57;fontColor=#ffffff;" vertex="1" parent="nwqiyzC2I8K5AtPygf9F-1">
          <mxGeometry x="30" y="12.5" width="65" height="65" as="geometry" />
        </mxCell>
        <mxCell id="nwqiyzC2I8K5AtPygf9F-4" value="&lt;i&gt;Name of Author&lt;/i&gt;" style="text;html=1;align=left;verticalAlign=middle;whiteSpace=wrap;rounded=0;fontSize=15;" vertex="1" parent="nwqiyzC2I8K5AtPygf9F-1">
          <mxGeometry x="100" y="30" width="80" height="30" as="geometry" />
        </mxCell>
        <mxCell id="nwqiyzC2I8K5AtPygf9F-5" value="&lt;h3&gt;&lt;div style=&quot;font-family: Consolas, &amp;quot;Courier New&amp;quot;, monospace; font-weight: normal; line-height: 19px; white-space: pre;&quot;&gt;&lt;div style=&quot;line-height: 19px;&quot;&gt;&lt;font style=&quot;color: rgb(255, 255, 255);&quot;&gt;â‰¡&lt;/font&gt;&lt;/div&gt;&lt;/div&gt;&lt;/h3&gt;" style="rounded=1;whiteSpace=wrap;html=1;fillColor=#76608a;fontColor=#ffffff;strokeColor=#432D57;fontSize=30;" vertex="1" parent="nwqiyzC2I8K5AtPygf9F-1">
          <mxGeometry x="430" y="22.5" width="50" height="45" as="geometry" />
        </mxCell>
        <mxCell id="nwqiyzC2I8K5AtPygf9F-6" value="&lt;font&gt;footer&lt;/font&gt;" style="rounded=0;whiteSpace=wrap;html=1;fillColor=#e1d5e7;strokeColor=#9673a6;fontStyle=2;fontSize=20;" vertex="1" parent="nwqiyzC2I8K5AtPygf9F-1">
          <mxGeometry y="680" width="520" height="80" as="geometry" />
        </mxCell>
        <mxCell id="nwqiyzC2I8K5AtPygf9F-8" value="" style="endArrow=none;html=1;rounded=0;strokeWidth=2;" edge="1" parent="nwqiyzC2I8K5AtPygf9F-1">
          <mxGeometry width="50" height="50" relative="1" as="geometry">
            <mxPoint x="80" y="160" as="sourcePoint" />
            <mxPoint x="440" y="160" as="targetPoint" />
          </mxGeometry>
        </mxCell>
        <mxCell id="nwqiyzC2I8K5AtPygf9F-10" value="Contact Us!" style="text;strokeColor=none;fillColor=none;html=1;fontSize=20;fontStyle=1;verticalAlign=middle;align=center;" vertex="1" parent="nwqiyzC2I8K5AtPygf9F-1">
          <mxGeometry x="150" y="120" width="220" height="40" as="geometry" />
        </mxCell>
        <mxCell id="W_Kgb5oTkfVQnzCG5xYg-0" value="" style="rounded=0;whiteSpace=wrap;html=1;fillColor=#f5f5f5;fontColor=#333333;strokeColor=#666666;" vertex="1" parent="nwqiyzC2I8K5AtPygf9F-1">
          <mxGeometry x="40" y="200" width="440" height="400" as="geometry" />
        </mxCell>
        <mxCell id="W_Kgb5oTkfVQnzCG5xYg-1" value="Name:" style="text;strokeColor=none;fillColor=none;html=1;fontSize=15;fontStyle=1;verticalAlign=middle;align=left;" vertex="1" parent="nwqiyzC2I8K5AtPygf9F-1">
          <mxGeometry x="60" y="220" width="60" height="40" as="geometry" />
        </mxCell>
        <mxCell id="W_Kgb5oTkfVQnzCG5xYg-2" value="Email:" style="text;strokeColor=none;fillColor=none;html=1;fontSize=15;fontStyle=1;verticalAlign=middle;align=left;" vertex="1" parent="nwqiyzC2I8K5AtPygf9F-1">
          <mxGeometry x="60" y="260" width="60" height="40" as="geometry" />
        </mxCell>
        <mxCell id="W_Kgb5oTkfVQnzCG5xYg-3" value="Subject:" style="text;strokeColor=none;fillColor=none;html=1;fontSize=15;fontStyle=1;verticalAlign=middle;align=left;" vertex="1" parent="nwqiyzC2I8K5AtPygf9F-1">
          <mxGeometry x="60" y="300" width="80" height="40" as="geometry" />
        </mxCell>
        <mxCell id="W_Kgb5oTkfVQnzCG5xYg-4" value="Message:" style="text;strokeColor=none;fillColor=none;html=1;fontSize=15;fontStyle=1;verticalAlign=middle;align=left;" vertex="1" parent="nwqiyzC2I8K5AtPygf9F-1">
          <mxGeometry x="60" y="340" width="90" height="40" as="geometry" />
        </mxCell>
        <mxCell id="W_Kgb5oTkfVQnzCG5xYg-5" value="" style="rounded=1;whiteSpace=wrap;html=1;" vertex="1" parent="nwqiyzC2I8K5AtPygf9F-1">
          <mxGeometry x="120" y="225" width="340" height="30" as="geometry" />
        </mxCell>
        <mxCell id="W_Kgb5oTkfVQnzCG5xYg-6" value="" style="rounded=1;whiteSpace=wrap;html=1;" vertex="1" parent="nwqiyzC2I8K5AtPygf9F-1">
          <mxGeometry x="120" y="265" width="340" height="30" as="geometry" />
        </mxCell>
        <mxCell id="W_Kgb5oTkfVQnzCG5xYg-7" value="" style="rounded=1;whiteSpace=wrap;html=1;" vertex="1" parent="nwqiyzC2I8K5AtPygf9F-1">
          <mxGeometry x="130" y="305" width="330" height="30" as="geometry" />
        </mxCell>
        <mxCell id="W_Kgb5oTkfVQnzCG5xYg-8" value="" style="rounded=1;whiteSpace=wrap;html=1;" vertex="1" parent="nwqiyzC2I8K5AtPygf9F-1">
          <mxGeometry x="140" y="345" width="320" height="175" as="geometry" />
        </mxCell>
        <mxCell id="W_Kgb5oTkfVQnzCG5xYg-10" value="SEND" style="rounded=1;whiteSpace=wrap;html=1;fillColor=#76608a;strokeColor=#432D57;fontColor=#ffffff;fontSize=15;fontStyle=1" vertex="1" parent="nwqiyzC2I8K5AtPygf9F-1">
          <mxGeometry x="200" y="540" width="120" height="40" as="geometry" />
        </mxCell>
      </root>
    </mxGraphModel>
  </diagram>
</mxfile>
